<svg width="176" height="86" viewBox="0 0 176 86" fill="none" xmlns="http://www.w3.org/2000/svg">
<rect x="61" width="54" height="54" rx="16" fill="url(#paint0_linear_1569_40218)"/>
<path fill-rule="evenodd" clip-rule="evenodd" d="M90.7203 10.9232C95.1303 10.9232 98.3758 12.1251 100.457 14.529C101.516 15.8597 102.253 17.4135 102.611 19.0707C102.968 20.7279 102.936 22.4443 102.518 24.0876L101.29 31.035C100.799 34.5593 98.9535 37.7597 96.1378 39.9683C92.9686 42.1704 89.1488 43.2633 85.2823 43.0742C80.8667 43.0742 77.6211 41.8937 75.5456 39.5328C74.4848 38.2167 73.7465 36.6747 73.3889 35.0282C73.0312 33.3818 73.0639 31.6755 73.4843 30.0437L74.7125 23.0963L74.7176 23.0929C75.1851 19.5379 77.0342 16.3037 79.8717 14.0783C83.0309 11.8563 86.8499 10.7456 90.7203 10.9232ZM90.3107 19.763C89.8182 19.6034 87.6823 19.5461 87.1482 19.6857C86.614 19.8253 86.1123 20.0702 85.6715 20.4065C85.2309 20.7428 84.8599 21.1639 84.5798 21.6456C84.2998 22.1273 84.1162 22.6603 84.0395 23.2141L82.489 32.0742L82.4781 32.1462C82.136 34.5121 83.3004 35.6951 85.9712 35.6951C88.7277 35.6951 90.2942 34.4881 90.6705 32.0742L92.2155 23.2141L92.2332 23.1511C92.3519 22.7089 92.365 22.2441 92.2709 21.7953C92.1723 21.3251 91.9591 20.8874 91.651 20.522C91.2588 20.1807 90.803 19.9226 90.3107 19.763ZM90.5802 12.6535C86.9027 12.6314 83.4047 13.5344 80.4545 15.6522C77.8055 17.7794 76.081 20.8714 75.6483 24.2689L74.4991 30.9004C75.2049 27.4847 76.7136 24.2923 78.8972 21.5943C84.0349 15.2127 91.9879 12.7776 98.5418 14.9938C96.2324 13.309 93.4267 12.6314 90.5802 12.6535Z" fill="white"/>
<path d="M8.48712 81.9113C7.05304 81.9113 5.76238 81.5971 4.61512 80.9687C3.46786 80.3273 2.57482 79.4633 1.93601 78.3767C1.29719 77.2902 0.977783 76.0858 0.977783 74.7636C0.977783 73.4415 1.29719 72.2371 1.93601 71.1505C2.57482 70.064 3.46786 69.2065 4.61512 68.5782C5.76238 67.9367 7.05304 67.616 8.48712 67.616C9.92119 67.616 11.2053 67.9367 12.3396 68.5782C13.4868 69.2065 14.3799 70.064 15.0187 71.1505C15.6705 72.2371 15.9964 73.4415 15.9964 74.7636C15.9964 76.0858 15.6705 77.2902 15.0187 78.3767C14.3799 79.4633 13.4868 80.3273 12.3396 80.9687C11.2053 81.5971 9.92119 81.9113 8.48712 81.9113ZM8.48712 79.6335C9.45186 79.6335 10.3188 79.4175 11.088 78.9855C11.8702 78.5535 12.483 77.9709 12.9262 77.2378C13.3695 76.4916 13.5911 75.6669 13.5911 74.7636C13.5911 73.8604 13.3695 73.0422 12.9262 72.3091C12.483 71.5629 11.8702 70.9738 11.088 70.5418C10.3188 70.1098 9.45186 69.8938 8.48712 69.8938C7.50934 69.8938 6.62934 70.1098 5.84712 70.5418C5.07793 70.9738 4.47171 71.5629 4.02845 72.3091C3.59823 73.0422 3.38312 73.8604 3.38312 74.7636C3.38312 75.6669 3.59823 76.4916 4.02845 77.2378C4.47171 77.9709 5.07793 78.5535 5.84712 78.9855C6.62934 79.4175 7.50934 79.6335 8.48712 79.6335Z" fill="#373F52"/>
<path d="M22.7072 81.9113C21.7555 81.9113 20.8755 81.6887 20.0672 81.2436C19.272 80.7985 18.6397 80.1767 18.1703 79.3782C17.701 78.5796 17.4663 77.6764 17.4663 76.6684C17.4663 75.6604 17.701 74.7571 18.1703 73.9585C18.6397 73.16 19.272 72.5382 20.0672 72.0931C20.8755 71.648 21.7555 71.4255 22.7072 71.4255C23.5155 71.4255 24.213 71.5629 24.7997 71.8378C25.3863 72.1127 25.8296 72.4138 26.1294 72.7411H26.2272V67.8909H28.5348V81.6364H26.7943L26.4032 80.5171H26.3054C25.9274 80.8836 25.445 81.2109 24.8583 81.4989C24.2717 81.7738 23.5546 81.9113 22.7072 81.9113ZM23.0005 79.8102C23.6003 79.8102 24.1478 79.6793 24.6432 79.4175C25.1386 79.1425 25.5232 78.7695 25.797 78.2982C26.0838 77.8269 26.2272 77.2836 26.2272 76.6684C26.2272 76.0531 26.0838 75.5098 25.797 75.0385C25.5232 74.5673 25.1386 74.2007 24.6432 73.9389C24.1478 73.664 23.6003 73.5265 23.0005 73.5265C22.4008 73.5265 21.8533 73.664 21.3579 73.9389C20.8625 74.2007 20.4714 74.5673 20.1845 75.0385C19.9108 75.5098 19.7739 76.0531 19.7739 76.6684C19.7739 77.2836 19.9108 77.8269 20.1845 78.2982C20.4714 78.7695 20.8625 79.1425 21.3579 79.4175C21.8533 79.6793 22.4008 79.8102 23.0005 79.8102Z" fill="#373F52"/>
<path d="M38.9258 71.7004H41.292L36.3054 82.2451C35.7839 83.3447 35.2428 84.1236 34.6822 84.5818C34.1216 85.04 33.4568 85.2691 32.6876 85.2691C32.2052 85.2691 31.7815 85.1971 31.4165 85.0531V82.952C31.6902 83.0436 32.0292 83.0895 32.4334 83.0895C33.2677 83.0895 33.8414 82.7229 34.1542 81.9898L34.5258 81.1651L30.028 71.7004H32.5116L35.7382 78.9658L38.9258 71.7004Z" fill="#373F52"/>
<path d="M46.4325 81.9113C45.4939 81.9113 44.679 81.7673 43.9881 81.4793C43.2971 81.1782 42.7561 80.7789 42.365 80.2815C41.9869 79.7709 41.7718 79.2145 41.7196 78.6124H43.9685C44.2423 79.5418 45.0832 80.0065 46.4912 80.0065C47.2213 80.0065 47.7558 79.9084 48.0948 79.712C48.4337 79.5156 48.6032 79.2538 48.6032 78.9265C48.6032 78.5338 48.3946 78.2458 47.9774 78.0625C47.5733 77.8662 46.9345 77.6764 46.061 77.4931C45.2136 77.3098 44.5226 77.1265 43.9881 76.9433C43.4536 76.7469 42.9907 76.4458 42.5996 76.04C42.2216 75.6342 42.0325 75.0844 42.0325 74.3905C42.0325 73.8407 42.189 73.3433 42.5019 72.8982C42.8148 72.44 43.2906 72.08 43.9294 71.8182C44.5682 71.5564 45.3505 71.4255 46.2761 71.4255C47.1105 71.4255 47.847 71.5695 48.4859 71.8575C49.1247 72.1324 49.6331 72.512 50.0112 72.9964C50.3893 73.4807 50.6174 74.024 50.6956 74.6262H48.4468C48.3555 74.2335 48.1273 73.9193 47.7623 73.6836C47.4103 73.448 46.9019 73.3302 46.237 73.3302C45.5721 73.3302 45.0832 73.4284 44.7703 73.6247C44.4705 73.8211 44.3205 74.0633 44.3205 74.3513C44.3205 74.7047 44.503 74.96 44.8681 75.1171C45.2462 75.2742 45.8589 75.4444 46.7063 75.6276C47.5798 75.8109 48.2903 76.0007 48.8379 76.1971C49.3985 76.3804 49.8808 76.688 50.285 77.12C50.6891 77.552 50.8912 78.1345 50.8912 78.8676C50.8912 79.7709 50.5066 80.504 49.7374 81.0669C48.9813 81.6298 47.8796 81.9113 46.4325 81.9113Z" fill="#373F52"/>
<path d="M56.9459 81.9113C56.0073 81.9113 55.1925 81.7673 54.5015 81.4793C53.8105 81.1782 53.2695 80.7789 52.8784 80.2815C52.5003 79.7709 52.2852 79.2145 52.233 78.6124H54.4819C54.7557 79.5418 55.5966 80.0065 57.0046 80.0065C57.7347 80.0065 58.2692 79.9084 58.6082 79.712C58.9471 79.5156 59.1166 79.2538 59.1166 78.9265C59.1166 78.5338 58.908 78.2458 58.4908 78.0625C58.0867 77.8662 57.4479 77.6764 56.5744 77.4931C55.727 77.3098 55.036 77.1265 54.5015 76.9433C53.967 76.7469 53.5042 76.4458 53.113 76.04C52.735 75.6342 52.5459 75.0844 52.5459 74.3905C52.5459 73.8407 52.7024 73.3433 53.0153 72.8982C53.3282 72.44 53.804 72.08 54.4428 71.8182C55.0816 71.5564 55.8639 71.4255 56.7895 71.4255C57.6239 71.4255 58.3605 71.5695 58.9993 71.8575C59.6381 72.1324 60.1465 72.512 60.5246 72.9964C60.9027 73.4807 61.1308 74.024 61.209 74.6262H58.9602C58.8689 74.2335 58.6408 73.9193 58.2757 73.6836C57.9237 73.448 57.4153 73.3302 56.7504 73.3302C56.0855 73.3302 55.5966 73.4284 55.2837 73.6247C54.9839 73.8211 54.8339 74.0633 54.8339 74.3513C54.8339 74.7047 55.0165 74.96 55.3815 75.1171C55.7596 75.2742 56.3723 75.4444 57.2197 75.6276C58.0932 75.8109 58.8037 76.0007 59.3513 76.1971C59.9119 76.3804 60.3942 76.688 60.7984 77.12C61.2025 77.552 61.4046 78.1345 61.4046 78.8676C61.4046 79.7709 61.02 80.504 60.2508 81.0669C59.4947 81.6298 58.393 81.9113 56.9459 81.9113Z" fill="#373F52"/>
<path d="M73.8931 76.5113C73.8931 76.9695 73.854 77.3164 73.7758 77.552H65.1322C65.3147 78.272 65.7058 78.8415 66.3056 79.2604C66.9183 79.6662 67.6484 79.8691 68.4958 79.8691C69.6691 79.8691 70.5361 79.5418 71.0967 78.8873H73.502C73.137 79.7382 72.5112 80.4582 71.6247 81.0473C70.7382 81.6233 69.6756 81.9113 68.4371 81.9113C67.3811 81.9113 66.4229 81.6822 65.5624 81.224C64.702 80.7658 64.0241 80.1375 63.5287 79.3389C63.0333 78.5404 62.7856 77.6502 62.7856 76.6684C62.7856 75.6996 63.0333 74.816 63.5287 74.0175C64.0241 73.2189 64.702 72.5905 65.5624 72.1324C66.4229 71.6611 67.3746 71.4255 68.4176 71.4255C69.3823 71.4255 70.2819 71.648 71.1162 72.0931C71.9636 72.5382 72.635 73.1535 73.1304 73.9389C73.6389 74.7113 73.8931 75.5687 73.8931 76.5113ZM68.4176 73.4676C67.6093 73.4676 66.8987 73.6771 66.286 74.096C65.6863 74.5149 65.2952 75.0909 65.1127 75.824H71.6442C71.4747 75.1171 71.0836 74.5476 70.4709 74.1156C69.8712 73.6836 69.1867 73.4676 68.4176 73.4676Z" fill="#373F52"/>
<path d="M83.2711 71.7004H85.6373L80.6506 82.2451C80.1291 83.3447 79.5881 84.1236 79.0275 84.5818C78.4669 85.04 77.802 85.2691 77.0328 85.2691C76.5505 85.2691 76.1268 85.1971 75.7617 85.0531V82.952C76.0355 83.0436 76.3745 83.0895 76.7786 83.0895C77.613 83.0895 78.1866 82.7229 78.4995 81.9898L78.8711 81.1651L74.3733 71.7004H76.8568L80.0835 78.9658L83.2711 71.7004Z" fill="#373F52"/>
<path d="M100.978 81.6364L97.5944 76.5505H94.2896V81.6364H91.8842V67.8909H98.3376C99.3414 67.8909 100.215 68.0742 100.958 68.4407C101.714 68.8073 102.288 69.3178 102.679 69.9724C103.083 70.6138 103.285 71.3535 103.285 72.1913C103.285 73.1862 103.005 74.0502 102.444 74.7833C101.897 75.5033 101.127 76.0073 100.137 76.2953L103.754 81.6364H100.978ZM94.2896 70.2276V74.2924H98.4158C99.198 74.2924 99.7977 74.1091 100.215 73.7425C100.645 73.3629 100.86 72.8655 100.86 72.2502C100.86 71.648 100.645 71.1636 100.215 70.7971C99.7977 70.4175 99.198 70.2276 98.4158 70.2276H94.2896Z" fill="#373F52"/>
<path d="M110.433 81.9113C109.377 81.9113 108.419 81.6822 107.559 81.224C106.698 80.7527 106.02 80.1178 105.525 79.3193C105.03 78.5207 104.782 77.6371 104.782 76.6684C104.782 75.6996 105.03 74.816 105.525 74.0175C106.02 73.2189 106.698 72.5905 107.559 72.1324C108.419 71.6611 109.377 71.4255 110.433 71.4255C111.489 71.4255 112.448 71.6611 113.308 72.1324C114.169 72.5905 114.846 73.2189 115.342 74.0175C115.837 74.816 116.085 75.6996 116.085 76.6684C116.085 77.6371 115.837 78.5207 115.342 79.3193C114.846 80.1178 114.169 80.7527 113.308 81.224C112.448 81.6822 111.489 81.9113 110.433 81.9113ZM110.433 79.8102C111.072 79.8102 111.646 79.6793 112.154 79.4175C112.676 79.1425 113.08 78.7695 113.367 78.2982C113.654 77.8138 113.797 77.2705 113.797 76.6684C113.797 76.0662 113.654 75.5295 113.367 75.0582C113.08 74.5738 112.676 74.2007 112.154 73.9389C111.646 73.664 111.072 73.5265 110.433 73.5265C109.795 73.5265 109.221 73.664 108.713 73.9389C108.204 74.2007 107.806 74.5738 107.52 75.0582C107.233 75.5295 107.089 76.0662 107.089 76.6684C107.089 77.2705 107.233 77.8138 107.52 78.2982C107.806 78.7695 108.204 79.1425 108.713 79.4175C109.221 79.6793 109.795 79.8102 110.433 79.8102Z" fill="#373F52"/>
<path d="M122.525 81.9113C121.378 81.9113 120.472 81.5709 119.807 80.8902C119.155 80.1964 118.829 79.2407 118.829 78.0233V73.7818H116.834V71.8182H117.871C118.705 71.8182 119.122 71.3993 119.122 70.5615V69.1476H121.117V71.7004H123.992V73.7818H121.117V77.8269C121.117 78.4684 121.267 78.9462 121.567 79.2604C121.88 79.5745 122.323 79.7316 122.897 79.7316C123.314 79.7316 123.679 79.6662 123.992 79.5353V81.6167C123.627 81.8131 123.138 81.9113 122.525 81.9113Z" fill="#373F52"/>
<path d="M130.322 71.4255C131.808 71.4255 132.962 71.8182 133.783 72.6036C134.618 73.376 135.035 74.4102 135.035 75.7062V81.6364H133.294L132.903 80.5171H132.806C132.48 80.8836 132.017 81.2109 131.417 81.4989C130.83 81.7738 130.1 81.9113 129.227 81.9113C128.393 81.9113 127.669 81.7738 127.056 81.4989C126.457 81.224 126 80.8575 125.687 80.3993C125.374 79.928 125.218 79.4044 125.218 78.8284C125.218 77.8727 125.609 77.1004 126.391 76.5113C127.174 75.9091 128.295 75.608 129.755 75.608H132.727V75.4902C132.727 74.8749 132.519 74.384 132.102 74.0175C131.697 73.6509 131.111 73.4676 130.342 73.4676C129.207 73.4676 128.445 73.8669 128.054 74.6655H125.746C125.955 73.6967 126.457 72.9178 127.252 72.3287C128.047 71.7265 129.07 71.4255 130.322 71.4255ZM129.598 79.9869C130.602 79.9869 131.372 79.7775 131.906 79.3585C132.454 78.9265 132.727 78.3898 132.727 77.7484V77.2771H129.833C129.025 77.2771 128.432 77.4015 128.054 77.6502C127.689 77.8989 127.506 78.2327 127.506 78.6516C127.506 79.0575 127.676 79.3847 128.014 79.6335C128.353 79.8691 128.881 79.9869 129.598 79.9869Z" fill="#373F52"/>
<path d="M142.005 81.9113C140.858 81.9113 139.952 81.5709 139.287 80.8902C138.635 80.1964 138.309 79.2407 138.309 78.0233V73.7818H136.314V71.8182H137.351C138.185 71.8182 138.602 71.3993 138.602 70.5615V69.1476H140.597V71.7004H143.472V73.7818H140.597V77.8269C140.597 78.4684 140.747 78.9462 141.047 79.2604C141.36 79.5745 141.803 79.7316 142.377 79.7316C142.794 79.7316 143.159 79.6662 143.472 79.5353V81.6167C143.107 81.8131 142.618 81.9113 142.005 81.9113Z" fill="#373F52"/>
<path d="M147.859 81.6364H145.571V71.7004H147.859V81.6364ZM146.705 70.3651C146.301 70.3651 145.962 70.2407 145.688 69.992C145.428 69.7302 145.297 69.416 145.297 69.0495C145.297 68.6829 145.428 68.3687 145.688 68.1069C145.962 67.8451 146.301 67.7142 146.705 67.7142C147.109 67.7142 147.442 67.8451 147.703 68.1069C147.976 68.3687 148.113 68.6829 148.113 69.0495C148.113 69.416 147.976 69.7302 147.703 69.992C147.442 70.2407 147.109 70.3651 146.705 70.3651Z" fill="#373F52"/>
<path d="M155.514 81.9113C154.458 81.9113 153.5 81.6822 152.64 81.224C151.779 80.7527 151.101 80.1178 150.606 79.3193C150.111 78.5207 149.863 77.6371 149.863 76.6684C149.863 75.6996 150.111 74.816 150.606 74.0175C151.101 73.2189 151.779 72.5905 152.64 72.1324C153.5 71.6611 154.458 71.4255 155.514 71.4255C156.57 71.4255 157.529 71.6611 158.389 72.1324C159.249 72.5905 159.927 73.2189 160.423 74.0175C160.918 74.816 161.166 75.6996 161.166 76.6684C161.166 77.6371 160.918 78.5207 160.423 79.3193C159.927 80.1178 159.249 80.7527 158.389 81.224C157.529 81.6822 156.57 81.9113 155.514 81.9113ZM155.514 79.8102C156.153 79.8102 156.727 79.6793 157.235 79.4175C157.757 79.1425 158.161 78.7695 158.448 78.2982C158.734 77.8138 158.878 77.2705 158.878 76.6684C158.878 76.0662 158.734 75.5295 158.448 75.0582C158.161 74.5738 157.757 74.2007 157.235 73.9389C156.727 73.664 156.153 73.5265 155.514 73.5265C154.876 73.5265 154.302 73.664 153.793 73.9389C153.285 74.2007 152.887 74.5738 152.601 75.0582C152.314 75.5295 152.17 76.0662 152.17 76.6684C152.17 77.2705 152.314 77.8138 152.601 78.2982C152.887 78.7695 153.285 79.1425 153.793 79.4175C154.302 79.6793 154.876 79.8102 155.514 79.8102Z" fill="#373F52"/>
<path d="M163.18 81.6364V71.7004H164.9L165.311 72.8H165.409C165.696 72.4465 166.126 72.1324 166.7 71.8575C167.286 71.5695 167.997 71.4255 168.831 71.4255C169.757 71.4255 170.572 71.6218 171.276 72.0145C171.993 72.4073 172.547 72.9636 172.938 73.6836C173.342 74.3905 173.544 75.2153 173.544 76.1578V81.6364H171.256V76.5113C171.256 75.6342 170.989 74.9273 170.454 74.3905C169.933 73.8407 169.242 73.5658 168.381 73.5658C167.508 73.5658 166.804 73.8407 166.269 74.3905C165.735 74.9273 165.467 75.6342 165.467 76.5113V81.6364H163.18Z" fill="#373F52"/>
<defs>
<linearGradient id="paint0_linear_1569_40218" x1="88" y1="0" x2="88" y2="54" gradientUnits="userSpaceOnUse">
<stop stop-color="#3881EF"/>
<stop offset="1" stop-color="#2E73DB"/>
</linearGradient>
</defs>
</svg>
